# xmcd CD database file
#
# Track frame offsets:
#	150
#	30307
#	50687
#	69052
#	96099
#	108443
#	128496
#	143347
#	168152
#	185594
#	221432
#	243913
#	251263
#
# Disc length: 3594 seconds
#
# Revision: 0
# Processed by: cddbd v1.5.2PL0 Copyright (c) Steve Scherf et al.
# Submitted via: CDex 1.51
#
DISCID=9d0e080d
DTITLE=Various Artist - You've Been Jazzed 1 - Disc 1 of 2 
DYEAR=2006
DGENRE=Jazz
TTITLE0=Touch Of Jazz, A - Collective Sound Members
TTITLE1=Family Dinner - Monte La Rue
TTITLE2=Close Your Eyes - Faberg
TTITLE3=Gallery, The - Lounge Conjunction
TTITLE4=He's Back Again - Floris
TTITLE5=Color My Pants - Tom Urleena
TTITLE6=Reach - Floris
TTITLE7=Spring Again - Faberg
TTITLE8=La Grande Nuit - Monte La Rue
TTITLE9=Holy Spring - SW
TTITLE10=Head In The Clouds - Monte La Rue
TTITLE11=Beghin Say - Floris
TTITLE12=Coffee Creamer - Sebastian Davidson/Licious K
EXTD=YEAR: 2006
EXTT0=
EXTT1=
EXTT2=
EXTT3=
EXTT4=
EXTT5=
EXTT6=
EXTT7=
EXTT8=
EXTT9=
EXTT10=
EXTT11=
EXTT12=
PLAYORDER=
